<svg width="46" height="46" viewBox="0 0 46 46" fill="none" xmlns="http://www.w3.org/2000/svg">
<path fill-rule="evenodd" clip-rule="evenodd" d="M38.7482 22.0216C39.0075 22.2812 39.1532 22.6331 39.1532 23C39.1532 23.3669 39.0075 23.7189 38.7482 23.9784L27.6713 35.0554C27.5446 35.1914 27.3917 35.3006 27.2218 35.3762C27.052 35.4519 26.8686 35.4925 26.6827 35.4959C26.4968 35.4991 26.3121 35.4649 26.1397 35.3953C25.9673 35.3256 25.8107 35.222 25.6792 35.0905C25.5477 34.9591 25.4441 34.8025 25.3744 34.63C25.3048 34.4576 25.2706 34.273 25.2739 34.0871C25.2772 33.9011 25.3178 33.7178 25.3935 33.548C25.4693 33.378 25.5783 33.2252 25.7144 33.0985L34.4282 24.3846H8.2313C7.86407 24.3846 7.51189 24.2387 7.25222 23.9791C6.99255 23.7194 6.84668 23.3672 6.84668 23C6.84668 22.6328 6.99255 22.2806 7.25222 22.021C7.51189 21.7613 7.86407 21.6154 8.2313 21.6154H34.4282L25.7144 12.9015C25.5783 12.7748 25.4693 12.6219 25.3935 12.452C25.3178 12.2822 25.2772 12.0989 25.2739 11.9129C25.2706 11.727 25.3048 11.5424 25.3744 11.37C25.4441 11.1975 25.5477 11.0409 25.6792 10.9094C25.8107 10.778 25.9673 10.6744 26.1397 10.6047C26.3121 10.535 26.4968 10.5009 26.6827 10.5041C26.8686 10.5074 27.052 10.5481 27.2218 10.6237C27.3917 10.6995 27.5446 10.8086 27.6713 10.9446L38.7482 22.0216Z" fill="#1F2830"/>
</svg>
